<?xml version="1.0" encoding="UTF-8"?>
<svg width="135.47mm" height="117.15mm" version="1.1" viewBox="0 0 135.47 117.15" xmlns="http://www.w3.org/2000/svg">
 <g fill="#888">
  <g stroke-width=".26458">
   <path d="m124.93-1.54e-8h-114.39c-5.8097 0-10.536 4.7268-10.536 10.536v96.074c0 5.8097 4.7265 10.536 10.536 10.536h114.39c5.8097 0 10.536-4.7265 10.536-10.536v-96.074c0-5.8095-4.7265-10.536-10.536-10.536zm1.5052 106.61c0 0.83-0.67521 1.5052-1.5052 1.5052h-114.39c-0.83 0-1.5052-0.67522-1.5052-1.5052v-75.067h117.4v75.067zm0-84.098h-117.4v-11.976c0-0.83 0.67522-1.5052 1.5052-1.5052h114.39c0.83 0 1.5052 0.67522 1.5052 1.5052z"/>
   <circle cx="18.998" cy="15.772" r="3.3962"/>
   <circle cx="29.887" cy="15.772" r="3.3962"/>
   <circle cx="40.775" cy="15.772" r="3.3962"/>
  </g>
  <path d="m93.039 76.319 7.8525 10.421c2.1286 2.8253 6.1451 3.3902 8.9705 1.2609 2.8253-2.129 3.3898-6.1452 1.2609-8.9705l-7.8525-10.421c3.6852-5.9922 3.5618-13.886-0.92102-19.835-5.8422-7.7536-16.904-9.3084-24.657-3.4658-7.7537 5.8426-9.3084 16.904-3.4658 24.657 4.4682 5.9292 12.001 8.2539 18.813 6.3529zm-7.637-20.779c2.1119-1.5914 5.125-1.1679 6.7164 0.94404 1.591 2.1115 1.168 5.1239-0.94314 6.7154-4.24e-4 3.19e-4 -7.96e-4 2.67e-4 -0.0012 5.91e-4 -4.22e-4 3.18e-4 -4.74e-4 6.9e-4 -8.47e-4 6.38e-4 -2.1117 1.5903-5.1241 1.1668-6.7151-0.94463-1.5914-2.1115-1.1679-5.1246 0.94399-6.716z" stroke-width=".37532"/>
  <path d="m26.508 92.773h55.554c2.4937 0 4.5156-2.0217 4.5156-4.5156 0-2.494-2.0217-4.5156-4.5156-4.5156h-55.554c-2.4937 0-4.5156 2.0217-4.5156 4.5156 0 2.494 2.0217 4.5156 4.5156 4.5156z" stroke-width=".26458"/>
 </g>
</svg>
